<?xml version="1.0" encoding="UTF-8" standalone="no"?>
<!-- Created with Inkscape (http://www.inkscape.org/) -->

<svg
   xmlns:svg="http://www.w3.org/2000/svg"
   xmlns="http://www.w3.org/2000/svg"
   version="1.1"
   width="373"
   height="588"
   id="svg2902">
  <defs
     id="defs2906" />
  <path
     d="m 186.28111,539.03919 c -5.88471,-2.81799 -12.71944,-10.0763 -14.92407,-15.84903 -2.61836,-6.85609 -1.63692,-17.4916 2.49283,-27.01401 3.81071,-8.78676 6.00306,-10.1653 5.36749,-3.37503 -0.24811,2.65066 -0.90641,5.10925 -1.46288,5.46353 -0.55646,0.35428 -1.51543,3.3 -2.13105,6.54606 -2.00746,10.58536 3.34994,23.17804 11.59839,27.26227 1.60515,0.7948 7.70303,1.70962 13.55084,2.03296 8.92565,0.49353 11.92392,0.16644 18.67812,-2.03761 17.08253,-5.5744 33.46252,-17.18904 38.12896,-27.03626 4.15761,-8.77349 1.75904,-19.88522 -7.24779,-33.57663 -6.46259,-9.82383 -9.05419,-11.25253 -19.71506,-10.86855 -14.69543,0.52931 -14.35241,0.42263 -15.8091,4.91638 -1.44377,4.45386 -5.71454,6.70061 -4.59434,2.41696 0.50504,-1.93129 0.08,-2.40274 -2.16652,-2.40274 -1.53717,0 -3.84634,0.73648 -5.13148,1.63663 -1.28516,0.90014 -4.42264,2.20007 -6.97222,2.8887 -2.54955,0.68864 -5.8377,2.44743 -7.30698,3.90843 -7.37703,7.33551 -12.31613,13.86077 -15.55492,20.5503 -1.96718,4.06311 -3.76414,7.20002 -3.99326,6.97093 -0.91435,-0.91437 5.36385,-16.67523 8.43684,-21.17993 1.80197,-2.64148 6.29692,-7.77979 9.98876,-11.41847 3.69185,-3.63867 6.71246,-7.16475 6.71246,-7.83574 0,-0.67099 0.63195,-1.61055 1.40435,-2.08792 2.13811,-1.32141 22.41989,-1.4 23.28045,-0.0903 0.45903,0.69865 2.74002,0.18717 5.83691,-1.30883 7.69609,-3.71769 18.91155,-2.38491 24.9437,2.96418 3.19641,2.83445 9.32766,12.30636 13.03585,20.1385 4.02764,8.50686 4.99146,20.13815 2.13775,25.79811 -2.89762,5.74707 -16.72603,19.0201 -22.8335,21.91646 -2.85783,1.35527 -5.98404,2.92088 -6.94712,3.47914 -5.09066,2.9508 -8.11443,4.17705 -15.65344,6.34808 -10.63553,3.06275 -27.61326,3.49465 -33.14997,0.84331 l 0,6e-5 z M 178.57082,434.29 c -0.35016,-1.12361 -1.14151,-5.45752 -1.75853,-9.63091 -0.61705,-4.1734 -1.91413,-12.84121 -2.88242,-19.26182 -3.89598,-25.83358 -5.55296,-56.34655 -5.48355,-100.97859 0.0402,-25.86389 0.55175,-45.44557 1.25012,-47.85498 0.65011,-2.24297 1.18203,-4.19644 1.18203,-4.34105 0,-0.1446 -0.78799,0.0394 -1.75107,0.40903 -1.2869,0.49383 -1.75108,-0.15374 -1.75108,-2.44289 0,-2.46867 4.55743,-7.77525 21.9692,-25.58053 12.08306,-12.35612 23.50881,-24.26294 25.39056,-26.45959 1.88178,-2.19666 6.44199,-7.10468 10.13383,-10.90673 3.69186,-3.80203 6.71246,-7.19816 6.71246,-7.54693 0,-1.50217 9.95728,-17.33023 12.28707,-19.53149 5.04885,-4.77032 6.18276,-27.18585 1.79038,-35.39309 -1.789,-3.34279 -9.13253,-9.35414 -12.44176,-10.18469 -1.64504,-0.41289 -6.57485,-0.49428 -10.95512,-0.18087 -6.29474,0.45038 -9.51731,1.43886 -15.37386,4.71573 -11.33383,6.34152 -30.93329,21.37549 -40.68015,31.20415 -9.53612,9.61616 -21.01287,22.71754 -21.01287,23.98743 0,0.4382 -2.2661,4.28197 -5.03576,8.54171 -6.28186,9.66152 -12.47499,21.50796 -12.47499,23.86262 0,0.98022 -0.43617,1.95733 -0.96926,2.17136 -1.04001,0.41754 -8.3698,15.46844 -8.3698,17.18647 0,0.56731 -1.28935,4.89981 -2.86521,9.6278 -2.29414,6.88292 -5.30647,26.34137 -5.30647,34.27755 0,3.0606 -3.54737,2.95272 -4.72462,-0.14369 -0.63124,-1.6603 -2.95496,-4.93352 -5.16381,-7.27384 -2.208854,-2.3403 -6.110841,-7.14437 -8.671083,-10.6757 -10.694437,-14.75079 -22.29888,-31.46382 -22.29888,-32.11544 0,-0.38466 -2.060228,-3.7332 -4.578284,-7.44121 -5.760827,-8.48319 -10.098424,-16.18802 -17.706275,-31.45147 -3.304834,-6.63042 -6.734636,-12.33383 -7.621782,-12.67426 -0.887144,-0.34043 -1.61299,-1.68682 -1.61299,-2.99199 0,-1.30516 -0.836594,-2.98476 -1.859098,-3.73242 -1.775579,-1.29833 -4.575469,-12.11435 -3.431988,-13.25784 0.301214,-0.30121 1.549826,-0.60807 2.774693,-0.68189 1.312017,-0.079 5.448594,-4.21116 10.067914,-10.05698 15.703539,-19.87306 40.333899,-45.634738 51.562191,-53.930556 2.869656,-2.120189 8.772802,-6.481495 13.118092,-9.691798 4.3453,-3.210302 8.70378,-6.362236 9.68552,-7.004296 0.98173,-0.64206 4.09617,-2.725815 6.92098,-4.630564 7.55974,-5.097502 13.55267,-8.465617 22.06305,-12.399763 4.17339,-1.929262 8.66109,-4.039077 9.97267,-4.688478 1.31158,-0.649402 3.22854,-1.304581 4.25992,-1.455957 1.03137,-0.151374 2.58487,-0.808798 3.45223,-1.460943 2.34347,-1.762019 20.55523,-7.210143 27.25941,-8.15477 3.2103,-0.452335 12.40344,-0.876696 20.4292,-0.943024 11.73486,-0.09699 16.76391,0.420491 25.68241,2.642648 13.3417,3.324248 30.04263,10.909619 40.65906,18.46687 13.06661,9.301393 20.10845,15.992125 32.85648,31.218251 9.822,11.731296 14.8003,20.73849 17.46716,31.60318 3.94018,16.0521 6.0531,55.48436 3.56739,66.57608 -0.70037,3.12519 -3.08639,9.50268 -5.30227,14.17222 -2.21589,4.66952 -4.02888,8.92545 -4.02888,9.45761 0,2.38844 -11.94561,14.14902 -15.06823,14.83487 -1.85229,0.40684 -4.29167,1.76055 -5.42085,3.00828 -1.12918,1.24774 -2.56555,2.26861 -3.19193,2.26861 -0.62639,0 -3.56556,1.73746 -6.53152,3.86102 -6.18079,4.42531 -36.50884,21.82139 -38.04308,21.82139 -0.56092,0 -1.84917,0.69279 -2.86282,1.53954 -1.01365,0.84673 -7.62153,4.10236 -14.68419,7.2347 -7.06268,3.13235 -13.42731,6.12259 -14.14365,6.64496 -1.32849,0.96879 -3.52353,10.60808 -4.33085,19.01859 -0.43924,4.5758 1.22825,55.89182 2.05673,63.29494 0.23133,2.06713 0.78129,7.0577 1.22214,11.09013 0.44085,4.03245 2.03526,12.8476 3.5431,19.58923 1.50785,6.74164 3.58967,16.42823 4.62625,21.52577 1.29598,6.37322 2.59655,9.76685 4.16365,10.86449 3.29877,2.31055 2.80153,5.60227 -1.28595,8.5128 -3.21473,2.2891 -3.75937,2.36367 -5.54506,0.75926 -2.19399,-1.97127 -6.1606,-1.41212 -26.53527,3.74057 -5.66043,1.4315 -17.74036,6.84419 -18.68466,8.37207 -1.14507,1.85279 -5.01387,1.20579 -5.68597,-0.95089 z m 10.75189,-10.08212 c 1.73379,-0.89024 6.56694,-2.4943 10.74032,-3.56459 4.1734,-1.07028 11.30269,-3.03157 15.84287,-4.3584 l 8.25487,-2.41243 -0.28925,-9.01601 c -0.15907,-4.95881 -1.07248,-11.85629 -2.02978,-15.32772 -4.06077,-14.72547 -7.60536,-51.68825 -7.54759,-78.70576 0.0422,-19.79677 1.22873,-30.49414 3.96994,-35.79505 1.72,-3.32611 1.72097,-3.57511 0.0117,-2.91906 -1.29505,0.49695 -1.86905,0.0598 -1.86905,-1.42349 0,-4.0323 4.45518,-7.83562 13.0434,-11.13493 11.12009,-4.27197 33.08207,-15.28486 44.10468,-22.1164 4.78592,-2.96619 9.28043,-5.39309 9.9878,-5.39309 0.70735,0 3.09547,-1.3728 5.30689,-3.05067 2.21143,-1.67788 6.6474,-4.28415 9.85771,-5.79175 3.2103,-1.50758 8.68428,-5.62639 12.1644,-9.15292 3.4801,-3.52652 6.70364,-6.17937 7.16342,-5.89521 1.02004,0.63043 2.58839,-3.93848 2.31814,-6.75323 -0.11113,-1.15787 0.59427,-2.04293 1.62831,-2.04293 1.00345,0 1.71285,-0.39399 1.57645,-0.87554 -0.13641,-0.48154 0.33008,-1.92618 1.03667,-3.2103 4.04249,-7.34675 5.68174,-37.47641 2.85387,-52.45478 -0.7196,-3.80975 -1.3081,-9.10585 -1.3081,-11.76907 0,-5.54894 -3.66799,-18.55975 -7.38779,-26.20541 -6.00488,-12.342309 -25.02864,-32.866379 -42.26922,-45.602731 -6.06882,-4.483305 -22.60626,-13.225836 -30.30874,-16.022743 -7.37548,-2.678166 -28.91937,-5.260607 -38.42938,-4.606483 -19.93916,1.371466 -32.3824,4.901649 -52.62647,14.930272 -20.25058,10.031853 -32.37221,17.203823 -39.69101,23.483874 -2.56824,2.203739 -7.95721,6.225255 -11.97548,8.936723 -16.853562,11.372478 -59.476758,59.504588 -60.685236,68.528598 -0.217449,1.62375 3.20677,9.968 8.448917,20.58864 10.84238,21.96674 15.250781,29.60736 26.928603,46.67248 3.250477,4.75001 6.21658,9.40316 6.591341,10.34032 0.37476,0.93716 2.272398,3.80523 4.216972,6.37347 11.232203,14.83462 14.336033,18.67812 15.083543,18.67812 0.4575,0 1.43922,-3.41459 2.18161,-7.58799 3.22552,-18.13274 6.55513,-27.09189 19.08945,-51.36483 1.16043,-2.24722 2.47811,-5.29899 2.92819,-6.78173 0.45007,-1.48276 3.99886,-7.52396 7.88619,-13.42491 16.83616,-25.55723 45.38707,-51.6676 71.52913,-65.41481 6.4456,-3.38953 7.89687,-3.68332 18.19424,-3.68332 10.41466,0 11.52431,0.23171 16.01583,3.34434 2.65424,1.83938 6.47651,5.91662 8.49395,9.06052 4.81664,7.50608 5.50991,17.50341 2.09456,30.2046 -3.22065,11.97708 -16.69229,34.53454 -23.83078,39.90322 -2.83283,2.1305 -5.47311,4.82915 -5.86726,5.997 -0.39417,1.16787 -9.90069,11.41159 -21.1256,22.76384 -20.59951,20.83318 -24.97157,25.76859 -26.51069,29.92663 -0.46452,1.25488 -0.81349,23.18886 -0.77552,48.74217 0.0595,40.09274 0.67541,56.83367 2.93271,79.72307 0.25328,2.56824 0.78671,8.34678 1.1854,12.84121 1.22308,13.78772 5.20866,34.43779 6.64668,34.43779 0.58621,0 2.4844,-0.72837 4.21817,-1.6186 z"
     id="path3124"
     style="fill:#000000" />
</svg>
